<svg xmlns="http://www.w3.org/2000/svg" viewBox="0 0 1080 1080">
<rect width="1080" height="1080" rx="200" fill="#0a1c26"/>
<g transform="translate(108 108) scale(0.8)"><path fill="#e9f1ee" d="m807 344 66.5 5.5a64 64 0 0 1 42.9 19l6.8 6.1c19.5 17.2 30.7 39.7 42.9 62.3q5.6 10.5 11.5 20.7l1.6 2.9 8.3 14.3C998.8 494 998.8 494 996 505c-4.1 12.3-12.4 18.4-23.3 24.7l-8 4.7a532 532 0 0 0-17.5 11l-10.2 6.4-2.2 1.4c-1.8.8-1.8.8-4.8-.2l-1-7a217 217 0 0 0-25 6l-16.3 4.7-2.5.7c-12.3 3.3-23 .8-35-2.5l-37.6-9.8-11.4-3-3.8-1c-8.3-2.7-8.3-2.7-10.7-6q-1-3.8-1.1-7.7l-.1-3.3-.1-3.4-.1-3.4-.3-8.3-2.4-1.2-9.6-4.8-3-1.1c-7.9-4.9-12.7-14.8-17.6-22.5L729 444l-1.3-2-2.4-3.8q-2.6-4-5.4-7.8c-4-5.4-4-5.4-4.3-9.5 2-4.1 4.8-5.7 8.7-8l2.3-1.3 4.8-3a490 490 0 0 0 16.8-10.5l9.2-6.2c9.2-6.4 16.3-9 27.7-8.7l2.5.1 2.3.2c2.1-.2 2.1-.2 3.7-2 1.7-3.2 1.7-5.8 1.7-9.4l.1-17v-3.8c.5-3.2.5-3.2 2-5.6 3.5-2.2 5.5-1.9 9.6-1.5m45 100q1.2 6.4 3.7 12.4l.7 1.9c4 10 10.6 14.3 20 19l3.1 1.7c7.4 4 7.4 4 15.5 5a105 105 0 0 0 12.3-5.8l3.3-1.7c5.6-2.7 5.6-2.7 10.4-6.5-.3-3.5-1.8-5.1-4.4-7.5l-2-1.9-2.2-2-2.1-2c-8.5-9-8.5-9-19.5-12.7h-8.3zM547.4 203.1l13.9 4.5 12 4 9.5 3q1.7.7 3.5 1.2l3.3 1.1q6.8 2.2 13.7 4c9.4 3.7 14.3 16.6 18.7 25.1 1 2.8 1 4.3 1 7.2l-.1 2.7-.1 3.1-.2 3.3-2.1 39.3-.2 3.4-.6 9.9-.2 3c-1 18.4-1 18.4-8.5 25.1q-5 4.2-10.3 8.1-5.3 4.2-10.5 8.6-6.7 5.8-13.8 11.4l-10.3 8.3-13.2 10.8-9 7.4c-16.5 13.5-16.5 13.5-23.6 13.6h-9.1l-23.2.1h-8.5c-6.4-.9-10.5-4.8-14.9-9.3l-1.8-1.8-18.8-18.9-21.7-21.8-2-2c-12.6-12.6-12.6-12.6-17.9-18.9q-3.4-3.9-7-7.3l-1.6-1.5-11-10.9-2.7-2.7c-3.3-3.5-3.3-5.7-3.2-10.4q.4-8 1.4-16l.4-3.5c.9-8.2 2-13.6 8.6-19q4-2.9 8.6-5l2-1 4.1-2 11-5.3 2.1-1 15.4-8q13.7-7.3 27.6-14l23.5-12 25.4-13 2-1 5.8-3q1.7-.7 3.4-1.7c9.7-4.6 19.5-.4 29.2 2.8m.9 340.5 3.7.4a4214 4214 0 0 1 27.3 52.1l1.5 2.9 2.8 5.2c8.8 16.4 3.7 33.2.6 50.6l-.6 3.3-9.7 54.8-2 11.8A51 51 0 0 1 552 753a67 67 0 0 1-7.3 4l-2.1 1a124 124 0 0 1-15 5.9c-33.7 11.5-55.7 36.7-79.6 61.8L425.3 849l-3.4 3.5-1.6 1.7-19.6 20.4-2.5 2.5-2.1 2.2c-2.4 2-4 2.4-7.1 2.7-1-1-1-1-1.1-5q.1-7.1 1.4-14.2l.4-2.6 1.3-8.6.5-3 7-44 .9-5.9c1.7-11.5 3.4-20 11.6-28.7l6-7 3-3.6 1.6-1.8a54 54 0 0 0 15.8-33.3c-.9-7.7-6.1-14.1-10.3-20.5a21 21 0 0 1-3.8-15l.1-2.2q1-14.4 2.6-28.6l1-9.6.6-6.1.3-2.9c.7-6.3 1.8-12 7-16.2l1.6-1.4 1.8-1.5 1.9-1.6q7.2-6 14.5-11.5 6.4-5 12.4-10.3c18.4-16 18.4-16 26.6-16.1l3.5-.1 7.2-.1 3.5-.1h3.2a14 14 0 0 0 11-7.5l1.8-2.3 1.7-2.5 13.3-18.4 1.2-1.8c2.5-3.3 4.2-4.3 8.2-4.4m-172.9 25 3.4-.1c4.2.7 5.4 2.3 8.2 5.5q4.1 6 7.6 12.3l2 3.3c9.2 15.2 9.2 15.2 8 23.4a34 34 0 0 1-7.4 13.4l-3.6 4.8-1.8 2.4q-4.3 5.7-8.2 11.8a1752 1752 0 0 1-26.8 38.5l-11.4 16.4C338 711 332 719.8 319 724c-9.1 1.5-18.2.8-27.4 0l-12-.8-15-1.1c-21.7-1.8-39-1.6-59.3 7-8.3 2.2-16.6.8-24.8-1.1l-3-.6-30.6-6.8-38.7-8.6-9.3-2-2.8-.7c-6.3-1.5-9.5-4-13.1-9.3 1.6-3.5 2.8-4.8 6.2-6.6l2.6-1.4 2.9-1.4 6-3.3 3.2-1.6a681 681 0 0 0 23.2-13l14.3-8.1 2.8-1.7 15-8.3a1524 1524 0 0 0 30.9-17.7q13.5-7.8 27.1-15.1 11-6 21.8-12.2l24-13.6 18.4-10.6c6-3.4 12.1-3.2 18.7-1.6l13.8 4.4c7.7 2.5 14.4 4.2 22 1l5.7-3.6 2-1.4a474 474 0 0 0 16.4-11c5.4-3.7 9-4.4 15.3-4.6m27.3-192c5.6-.5 8.4.7 12.8 4.1q7.6 7.1 14.8 14.5 4.3 4.3 9 8.2 4.6 4.1 8.8 8.6l1.6 1.3c2 2.5 2.2 4.5 2.4 7.7-.8 2.4-.8 2.4-2.1 5l-1.7 3.1-2.2 3.9-1.3 2.4-18.7 33.1-23.7 42.3-1.9 3.4-3.6 6.5-1.6 3-1.4 2.6a37 37 0 0 1-15.9 14.3l-2.3 1.2-12.1 6.1c-16.8 8.6-16.8 8.6-24.5 6.1a25 25 0 0 1-5-8c-1.7-3.5-1.7-3.5-4-6-5-1-7.5 0-11.8 2.8l-10 7.3-2.3 1.6c-6.7 4.7-18 2.4-25.9 2.3l-21-.5c-10-.1-16.2-1-23.7-8.1l-9-9-6-5.7q-7.8-6.8-15.1-14-4.7-4.4-9.6-8.5c-2.6-2.2-2.6-2.2-3.8-4.7.2-3 1.4-4 3.5-6.1q5-3.8 10.6-6.8 11.1-6.5 21.8-13.4l41.4-26 31-19.3 28.9-18 9-5.7 3-1.8 21.6-13.5 3.2-2 6.2-4c11-7 17.9-8.5 30.6-10.3M594 407.2l3.2.8 32.4 7.5 51 11.9 3 .6c8 2 13.4 4.2 18.4 11l2.9 3.9 1.5 2 8.4 10.9 5.4 6.9 3.6 4.6 32.4 41.4c9.6 12.2 9.6 12.2 9.2 21-1 5.8-4.9 9-9.4 12.3a185 185 0 0 1-13.7 7.3l-11.5 6-2.3 1.3-19.2 10.3-2.7 1.4c-10.3 5.2-10.3 5.2-16.2 14.7l-3.1 11.8-.5 2.2c-1 2.5-2 4-3.8 6a50 50 0 0 1-28.6-1.6q-4-3.4-7.4-7.4a224 224 0 0 0-10-9.2l-9-8-7-6.3-9-8-12.3-11-9-7.8a31 31 0 0 1-7.2-14.6l-.7-2.3-8.1-27.5-4.3-14.3-12-40.5-1.1-3.7-2.1-6.7A40 40 0 0 1 553 418c2.7-3.9 7-6.3 11-8.7l1.9-1.3c8.7-5.4 18.7-3 28.2-.8m-344-96 3.5.1 8 .5 14.7.7a4716 4716 0 0 1 61.5 3.3l10 .5c7.2.5 13 2.7 18.2 7.7 2 2.9 2 2.9 3.7 6.2l1 1.8 8.8 16.2c1.5 2.9 1.5 2.9 3.5 5.8.4 2.1.4 2.1.4 4.4l.2 2.3c-.9 3.5-2.6 4.3-5.6 6.3a342 342 0 0 1-16.6 9.4l-3.2 1.8-14.7 8.3-99.6 56.3-2.8 1.6-17.3 9.9-2 1a31 31 0 0 1-24.5 3q-11.3-3.4-22.4-7.5l-6.8-2.3c-28.6-10-28.6-10-32.1-13.5 0-5.6 2.8-8.6 6.4-12.5l3.3-3.7 1.7-2q3.7-4.3 7.1-8.8 6.4-8.2 13.2-16 5.2-6 10-12.2l9.2-11.2 1.9-2.3 3.6-4.3 10.6-13 16.2-19.7 1.8-2.2 6.5-8 1.5-2 1.2-1.6c6-5.2 12.3-4.8 20-4.3"/><path fill="#e9f1ee" d="M655 224q4 2.2 7.3 5.1l4.2 3.3 2.2 1.8q5.8 4.5 11.7 8.7l2.4 1.8 18.4 13.4a2467 2467 0 0 1 37.6 27.6l12.4 9 2.5 2L765 305l2 1.5 2 1.5 1.6 1.2c3.4 4.3 3.7 10.3 4.5 15.6l.5 3.8.5 3.9.6 4c2.4 18 2.4 18-1.7 25.5-5 5.4-11.4 8.9-17.6 12.6l-6.2 3.7-3.2 1.9-13.5 8.3-26.2 16.1-2.8 1.7-2.5 1.5c-6.4 3.8-13.2 2-20.2.5l-2.7-.5-27.9-5.8-43.8-9q-1.2 0-2.5-.4-8-1.8-15.9-4.6c.3-5.4 3.5-8.1 7.1-11.8l3.6-3.8 1.8-1.8q2.6-2.7 5-5.7 4.6-5.2 9.4-10.3l11.2-12.2 2.2-2.4c2.5-3 4-5 4.2-9l.2-2.4.2-2.7.3-2.9 1.2-15.8 2.4-32.5 1-14.8 1.4-20.2c.3-5.2.9-9.3 3.8-13.7 3.8-2.5 5.5-2.5 10-2m97 389c2.4 4.8 2.6 9.6 3 14.9l2.2 24 .2 2.7c1.2 13.5 1.2 13.5-1.1 17-5.3 4.5-12.4 7-18.7 9.7l-3.1 1.5-3 1.3c-6.4 4.8-8.1 14.2-10.5 21.6l-9 27.8-1 3.2c-2.2 6.6-4.3 12.7-10.1 17l-1.8 1.2-1.9 1.3-2 1.4L679 769l-9.8 7-2 1.5-3.5 2.7c-2.6 2-4 3-7.4 2.7-2.2-.8-2.2-.8-3.2-1.8-.5-7.7.3-15.5.9-23.2l.2-3.8.9-11.6.6-8L657 715q-8.2 3-16 7l-3.1 1.7-9.4 5-2.8 1.4c-3.3 1.1-5.3.9-8.7-.1-1.3-2.6-1-4.2-1-7l.2-3.3.1-3.5.2-3.6a3236 3236 0 0 1 2.8-56.2l.2-3.4.6-11.7c.1-2.4.1-2.4.9-6.3 4.5-4 10.6-4.2 16.3-5l3.4-.6 35.7-5.7 56-9 3.2-.5q8.1-1.4 16.4-1.2M501.3 427.8l24 1.3 2.7.2 2.2.1c2.6.9 3.3 2.3 4.8 4.6l2.3 6 1.3 3.8 6.7 19 4.6 13 8.2 22.9c1.4 3.5 1.6 5.6.9 9.3-5.8 5-13.4 8.5-20.1 12l-24.2 13.4a2756 2756 0 0 1-45.8 25.7l-3.4 2-6.5 3.7q-1.5.7-3 1.7l-2.6 1.5a12 12 0 0 1-7.4 1c-1.6-1.2-1.6-1.2-3-3l-1.5-1.9-7.8-11.2c-4.7-7-4.7-7-9.8-14l-4-5.3a18 18 0 0 1-3.6-7.7c1-6 4.1-10.8 7.2-16l6.3-11.1 9.2-16.4 5-9 21.5-39.2 1.3-2.5 1.2-2.1c4.1-6.4 26-2.2 33.3-1.8M788 572c2.1.1 2.1.1 5 .6l3.2.6 3.8.8 22 4.4 53.7 10.7 2.2.5c6.6 1.3 12.6 3 16.8 8.5l2 2.7 11 15.6 9.8 13.6 12.5 17.5 12.6 17.7 1.7 2.3L952 678l1.5 2 2.6 3.4c2.7 3.6 3.5 6.1 2.9 10.6-1.5 3-1.5 3-4 5a45 45 0 0 1-17.1-4.7l-21.4-9.2-2.5-1.1c-13.2-6.6-13.2-6.6-27.2-6.2q-3.5 1.5-6.8 3.2c-8.5 4-16.5 1.1-25.2-1.1l-22-5.7-9.9-2.5-3.7-1-3.4-.9-3-.7a18 18 0 0 1-10.1-8.6l-1.2-2.1-6.3-12.6-1.3-2.8a113 113 0 0 1-7.9-69zm7 119.5c5.2 5 8.3 9.9 8.5 17.3v4.2c-.2 6-1.4 9.7-5.5 14l-1.6 1.7a21 21 0 0 1-16 6.4A24 24 0 0 1 764 729c-6.2-6.8-7.3-11.9-7.2-21 .5-7 4.2-12.3 9.2-17 8.9-5.4 20.5-6 29 .5m-27 4.1a22 22 0 0 0-7 16.4c.6 5.8 2.4 10 6.6 14 4.2 3.2 8.1 5 13.4 5 5.4-1 10.2-3 14-7a23 23 0 0 0 4-17 22 22 0 0 0-10-14c-7.7-2.8-14.5-2.6-21 2.6"/><path fill="#e9f1ee" d="M787.3 697.1c3.3 2.3 4.3 4.2 5.7 7.9v2h-8l-1-3c-3-.3-3-.3-6 0-2.3 3.4-2.5 5.1-2.4 9.1.3 2.2.3 2.2 2.9 3.9l2.5 1 1.5-2c3.6-2.9 6-2.3 10.5-2-.2 4-.8 5.8-3.4 8.9-4.3 3.3-9.4 2.8-14.6 2.1-4.3-1.7-6-4-8-8-.8-5.5-.7-10.5 1.6-15.6 5.5-5.6 11.2-6.8 18.6-4.3"/></g>
</svg>