<?xml version="1.0" encoding="UTF-8"?>
<svg version="1.1" xmlns="http://www.w3.org/2000/svg" width="1080" height="1080">
<path d="M0 0 C0.76224884 0.06007736 1.52449768 0.12015472 2.30984497 0.18205261 C4.11588748 0.32690702 5.921141 0.48177758 7.72570801 0.64398193 C11.37338393 0.96480564 15.02359343 1.24522862 18.67480469 1.52197266 C25.37713479 2.03417293 32.0760994 2.58081127 38.77402878 3.1475544 C42.69310137 3.47898812 46.61243995 3.80461533 50.53320312 4.11547852 C54.38715151 4.42110053 58.23961317 4.74150507 62.09149551 5.07211876 C63.53810471 5.19392377 64.98513872 5.31080518 66.43258286 5.42225075 C84.57817514 6.82913551 96.08464461 12.16600243 109.296875 24.4765625 C111.53141627 26.55528264 113.80022654 28.56546373 116.1171875 30.55078125 C135.65311755 47.71392627 146.8356963 70.23105824 159.0012207 92.8371582 C162.74870734 99.79023876 166.59142042 106.68269913 170.4921875 113.55078125 C171.02150879 114.49155518 171.55083008 115.4323291 172.09619141 116.40161133 C174.81204574 121.22588082 177.5720854 126.01444261 180.4140625 130.765625 C191.70891524 149.96021438 191.70891524 149.96021438 188.9296875 160.92578125 C184.78301658 173.23345345 176.5040135 179.35923903 165.6171875 185.61328125 C163.85170242 186.64906331 162.08740974 187.68688006 160.32421875 188.7265625 C159.4317041 189.2520166 158.53918945 189.7774707 157.61962891 190.31884766 C153.29783774 192.9006256 149.0511996 195.59756862 144.8046875 198.30078125 C143.23967539 199.29181205 141.67457507 200.28270358 140.109375 201.2734375 C137.60978166 202.8574104 135.11540733 204.44842207 132.625 206.046875 C131.73554687 206.60503906 130.84609375 207.16320312 129.9296875 207.73828125 C129.2078125 208.19847656 128.4859375 208.65867187 127.7421875 209.1328125 C125.9296875 209.92578125 125.9296875 209.92578125 122.9296875 208.92578125 C122.5996875 206.61578125 122.2696875 204.30578125 121.9296875 201.92578125 C115.31010811 203.1629869 108.84731961 204.68770478 102.37109375 206.52734375 C100.58546199 207.02276852 98.79964898 207.51754038 97.01367188 208.01171875 C94.24962332 208.77993244 91.48700027 209.55225429 88.72729492 210.3359375 C86.0286549 211.10018813 83.32549434 211.84627316 80.62109375 212.58984375 C79.81241348 212.82418121 79.00373322 213.05851868 78.17054749 213.29995728 C65.83206655 216.64829863 55.13274939 214.0925973 43.09765625 210.875 C41.49132945 210.45522195 39.88474156 210.0364419 38.27790833 209.61860657 C34.92985265 208.7449996 31.58431685 207.86251038 28.24047852 206.97290039 C23.9660847 205.83602839 19.68726424 204.71703826 15.40659618 203.60405254 C12.09625893 202.74211934 8.78779659 201.87317163 5.47991371 201.00187111 C3.90275309 200.58685449 2.32517025 200.17343883 0.74715233 199.76169395 C-1.45793042 199.1846972 -3.66047829 198.59887159 -5.86254883 198.01049805 C-7.11288406 197.67962692 -8.3632193 197.3487558 -9.65144348 197.00785828 C-18.01533348 194.3606749 -18.01533348 194.3606749 -20.41943359 191.09082031 C-21.21814995 188.43402487 -21.39583345 186.05945826 -21.484375 183.28515625 C-21.52304687 182.21523438 -21.56171875 181.1453125 -21.6015625 180.04296875 C-21.6325 178.93179688 -21.6634375 177.820625 -21.6953125 176.67578125 C-21.73398437 175.54914063 -21.77265625 174.4225 -21.8125 173.26171875 C-21.90668586 170.48323577 -21.99230836 167.70475791 -22.0703125 164.92578125 C-22.86695313 164.52746094 -23.66359375 164.12914062 -24.484375 163.71875 C-29.27734375 161.32226562 -29.27734375 161.32226562 -34.0703125 158.92578125 C-35.53597656 158.36310547 -35.53597656 158.36310547 -37.03125 157.7890625 C-44.96879252 152.92247152 -49.7563003 143.02566845 -54.6953125 135.36328125 C-55.7969602 133.66631557 -56.89862678 131.96936202 -58.0009613 130.27284241 C-58.78071514 129.07242446 -59.559973 127.87168422 -60.33876038 126.67063904 C-64.82417646 119.75455284 -69.34774039 112.86356188 -73.87249756 105.97317505 C-75.22829774 103.90823349 -76.58323954 101.84273109 -77.93798828 99.77709961 C-78.36480896 99.12713516 -78.79162964 98.47717072 -79.23138428 97.80751038 C-80.05792222 96.54696275 -80.88240597 95.28506538 -81.70465088 94.02171326 C-83.43297435 91.37330217 -85.18772767 88.76450559 -87.04931641 86.20751953 C-90.98137791 80.78410348 -90.98137791 80.78410348 -91.40625 76.68359375 C-89.42999308 72.60395227 -86.53056207 71.05217319 -82.6953125 68.80078125 C-81.55823853 68.10082031 -81.55823853 68.10082031 -80.39819336 67.38671875 C-78.78436992 66.39349503 -77.16597 65.40767524 -75.54345703 64.42871094 C-72.33032983 62.47609385 -69.16335155 60.45534403 -65.99609375 58.42944336 C-63.61391126 56.91375514 -61.21604222 55.42536181 -58.81640625 53.9375 C-55.66812084 51.97279019 -52.62183999 49.91902351 -49.60546875 47.7578125 C-40.34590345 41.31561935 -33.30017704 38.72565718 -21.88525391 39.0715332 C-21.0401123 39.09691162 -20.1949707 39.12229004 -19.32421875 39.1484375 C-18.19995483 39.22203491 -18.19995483 39.22203491 -17.05297852 39.29711914 C-14.93502824 39.07910002 -14.93502824 39.07910002 -13.32763672 37.35131836 C-11.63357622 34.08326185 -11.70134607 31.56865646 -11.69921875 27.89453125 C-11.68184129 26.51301829 -11.66425686 25.13150793 -11.64648438 23.75 C-11.6364047 21.58409933 -11.63281833 19.4183646 -11.63452148 17.25244141 C-11.63094776 15.15347294 -11.60360177 13.05577345 -11.57421875 10.95703125 C-11.57236572 9.70470703 -11.5705127 8.45238281 -11.56860352 7.16210938 C-11.0703125 3.92578125 -11.0703125 3.92578125 -9.48071289 1.48168945 C-6.08150791 -0.71248996 -4.02597205 -0.3499876 0 0 Z M44.9296875 99.92578125 C45.73473723 104.2437332 47.02212274 108.2167594 48.6171875 112.30078125 C48.84857422 112.935 49.07996094 113.56921875 49.31835938 114.22265625 C53.24722384 124.27562538 59.94128911 128.57287031 69.3671875 133.30078125 C70.37845703 133.83316406 71.38972656 134.36554688 72.43164062 134.9140625 C79.81953462 138.88591685 79.81953462 138.88591685 87.9296875 139.92578125 C92.21502436 138.31740094 96.20326629 136.25722088 100.2421875 134.11328125 C101.33853516 133.55318359 102.43488281 132.99308594 103.56445312 132.41601562 C109.12135425 129.70097831 109.12135425 129.70097831 113.9296875 125.92578125 C113.62422582 122.40351069 112.11828481 120.79524744 109.578125 118.46484375 C108.89105469 117.82804687 108.20398438 117.19125 107.49609375 116.53515625 C106.77292969 115.8803125 106.04976562 115.22546875 105.3046875 114.55078125 C104.60472656 113.90367187 103.90476562 113.2565625 103.18359375 112.58984375 C94.6898448 103.60404587 94.6898448 103.60404587 83.75537109 99.81225586 C82.89462982 99.81233139 82.03388855 99.81240692 81.14706421 99.81248474 C80.21681427 99.81764603 79.28656433 99.82280731 78.328125 99.828125 C77.37652496 99.82953995 76.42492493 99.8309549 75.44448853 99.83241272 C72.39785653 99.83802113 69.35129737 99.85057506 66.3046875 99.86328125 C64.24218856 99.86829517 62.17968847 99.87285826 60.1171875 99.87695312 C55.05465933 99.88799329 49.99218577 99.90526358 44.9296875 99.92578125 Z " fill="#FFFFFF" transform="translate(807.0703125,344.07421875)"/>
<path d="M0 0 C1.27706101 0.41588912 2.55442683 0.83084328 3.83207703 1.24491882 C7.17542443 2.33104999 10.51475232 3.42903856 13.85327148 4.52990723 C17.87899537 5.85497891 21.9093242 7.16595923 25.93894482 8.47912121 C29.08123864 9.50343079 32.22259786 10.5303354 35.36238098 11.56233215 C36.51034653 11.93919662 37.65831207 12.3160611 38.84106445 12.7043457 C40.50632675 13.25223251 40.50632675 13.25223251 42.20523071 13.81118774 C46.72575988 15.25434196 51.28326293 16.56492888 55.8502655 17.85295105 C65.3236672 21.44820243 70.17717727 34.40401426 74.57421875 42.88671875 C75.51825541 45.71882874 75.66727295 47.1711101 75.55859375 50.07421875 C75.50928711 51.42688843 75.50928711 51.42688843 75.45898438 52.80688477 C75.41451172 53.82322998 75.37003906 54.8395752 75.32421875 55.88671875 C75.27974609 56.96945068 75.23527344 58.05218262 75.18945312 59.16772461 C74.61296634 72.26803944 73.83609164 85.35864773 73.07421875 98.44921875 C73.00859741 99.58480225 72.94297607 100.72038574 72.87536621 101.89038086 C72.68411874 105.18230655 72.48921085 108.47399364 72.29296875 111.765625 C72.20701447 113.24573814 72.20701447 113.24573814 72.11932373 114.75575256 C70.99993165 133.23376297 70.99993165 133.23376297 63.57421875 139.88671875 C60.20908246 142.68787803 56.74605991 145.35885243 53.26953125 148.01953125 C49.69452053 150.76593434 46.24805596 153.64263466 42.82421875 156.57421875 C38.28594986 160.45144937 33.68810304 164.23568073 29.01171875 167.9453125 C25.5433052 170.70781496 22.11991532 173.52417157 18.69140625 176.3359375 C14.30495295 179.92995284 9.89921512 183.50028759 5.49560547 187.07324219 C2.45260068 189.54336919 -0.58827285 192.01566204 -3.61328125 194.5078125 C-19.98208094 207.9893378 -19.98208094 207.9893378 -27.07739258 208.04785156 C-28.01879593 208.05745911 -28.96019928 208.06706665 -29.93013 208.07696533 C-31.45358284 208.08334015 -31.45358284 208.08334015 -33.0078125 208.08984375 C-34.05474777 208.09554382 -35.10168304 208.1012439 -36.18034363 208.1071167 C-38.39699289 208.11656641 -40.61365621 208.12310057 -42.83032227 208.12695312 C-46.21460615 208.13665091 -49.59828074 208.16767188 -52.98242188 208.19921875 C-55.13671515 208.20574973 -57.29101276 208.21099983 -59.4453125 208.21484375 C-60.45487503 208.22719055 -61.46443756 208.23953735 -62.5045929 208.2522583 C-63.45545273 208.2492572 -64.40631256 208.2462561 -65.38598633 208.24316406 C-66.63150017 208.24863251 -66.63150017 208.24863251 -67.9021759 208.25421143 C-74.37086407 207.31222756 -78.39764652 203.34384454 -82.77905273 198.88989258 C-83.38315979 198.2878299 -83.98726685 197.68576721 -84.60968018 197.06546021 C-86.59607436 195.08206283 -88.5715393 193.08815626 -90.546875 191.09375 C-91.93342068 189.70414316 -93.32056101 188.31512943 -94.70826721 186.92668152 C-97.61357616 184.01677548 -100.51391516 181.10203841 -103.41040039 178.18334961 C-107.10652119 174.45902654 -110.81118698 170.74335805 -114.5191946 167.0308733 C-118.07324442 163.47164138 -121.6226078 159.90774996 -125.171875 156.34375 C-125.84172361 155.67202066 -126.51157223 155.00029133 -127.20171928 154.30820656 C-139.67646949 141.78821378 -139.67646949 141.78821378 -145.01533508 135.51707458 C-147.25572489 132.92737447 -149.66859939 130.55068915 -152.10546875 128.14453125 C-152.85281784 127.40286209 -152.85281784 127.40286209 -153.61526489 126.64620972 C-155.17463101 125.09885782 -156.7372665 123.55487776 -158.30078125 122.01171875 C-160.3843838 119.95469922 -162.46464148 117.89437891 -164.54296875 115.83203125 C-165.45675293 114.92984863 -166.37053711 114.02766602 -167.31201172 113.09814453 C-170.62854731 109.62838484 -170.59759583 107.39669658 -170.54150391 102.64599609 C-170.31748687 97.30456032 -169.71794443 92.00882328 -169.11328125 86.69921875 C-168.99533203 85.55001953 -168.87738281 84.40082031 -168.75585938 83.21679688 C-167.82285359 74.9537149 -166.8170785 69.58423921 -160.12660217 64.13737488 C-157.43312763 62.15679573 -154.50971895 60.69220359 -151.5078125 59.25 C-150.85797897 58.92928024 -150.20814545 58.60856049 -149.53862 58.27812195 C-148.15637807 57.59686084 -146.77236445 56.91918413 -145.38671875 56.24487305 C-141.74207285 54.47100732 -138.11035617 52.67096138 -134.4765625 50.875 C-133.76408356 50.52382111 -133.05160461 50.17264221 -132.3175354 49.81082153 C-127.14007029 47.25488456 -122.01474926 44.6149661 -116.92578125 41.88671875 C-107.80762259 37.01494176 -98.54910076 32.43124288 -89.29449463 27.82620239 C-81.41919288 23.90579753 -73.56263736 19.96629502 -65.80078125 15.82421875 C-57.4126248 11.35047035 -48.92600172 7.07984519 -40.42578125 2.82421875 C-39.41484406 2.31687698 -39.41484406 2.31687698 -38.38348389 1.79928589 C-36.4612343 0.83522107 -34.53754001 -0.12589034 -32.61328125 -1.0859375 C-31.49308594 -1.64547119 -30.37289062 -2.20500488 -29.21875 -2.78149414 C-19.48029634 -7.42513616 -9.67878443 -3.2141942 0 0 Z " fill="#FFFFFF" transform="translate(547.42578125,203.11328125)"/>
<path d="M0 0 C1.21429687 0.11988281 2.42859375 0.23976563 3.6796875 0.36328125 C9.97974502 12.281132 16.2223062 24.22776799 22.40771484 36.20556641 C25.22097265 41.64802273 28.05122151 47.07867851 30.94921875 52.4765625 C31.45396729 53.42160645 31.95871582 54.36665039 32.47875977 55.34033203 C33.41330945 57.0861457 34.35468948 58.82832883 35.30444336 60.56591797 C44.04349884 76.93837408 38.94682591 93.73649082 35.85546875 111.19140625 C35.57019853 112.81155766 35.57019853 112.81155766 35.27916527 114.46443939 C34.27441113 120.16899111 33.2621188 125.87214345 32.2434082 131.57421875 C31.19688726 137.44040224 30.17624545 143.31078234 29.16138935 149.18251419 C28.37174537 153.72340697 27.56308862 158.26076644 26.74928856 162.79738617 C26.36469109 164.96014896 25.9871562 167.12418071 25.61702919 169.28946686 C25.09720932 172.31967658 24.55051718 175.34389571 23.99731445 178.36816406 C23.85214386 179.25045685 23.70697327 180.13274963 23.55740356 181.04177856 C21.32928983 192.79777425 12.80016051 202.03559609 3.6796875 209.36328125 C1.3257122 210.87982162 -1.10817386 212.1302567 -3.62963867 213.34399414 C-4.66801392 213.8560835 -4.66801392 213.8560835 -5.72736645 214.3785181 C-10.63362904 216.73022003 -15.60122189 218.55303657 -20.76293945 220.25170898 C-54.4175627 231.77514548 -76.42787039 256.96903329 -100.34765923 282.03220212 C-107.84140657 289.88050957 -115.42267998 297.64372957 -123.00408649 305.40724087 C-124.12744564 306.55780419 -125.25078358 307.70838823 -126.37409973 308.85899353 C-126.92230308 309.4202918 -127.47050644 309.98159006 -128.03532201 310.55989736 C-131.27015415 313.87582708 -134.48772297 317.20738996 -137.69035947 320.55442059 C-139.66594521 322.61709008 -141.64913743 324.67234413 -143.63356209 326.72650719 C-144.98616593 328.13261194 -146.3280004 329.54905148 -147.66949463 330.96575928 C-148.47680527 331.79936478 -149.28411591 332.63297028 -150.1158905 333.49183655 C-150.81151187 334.2197191 -151.50713324 334.94760164 -152.22383404 335.69754124 C-154.62505437 337.60541144 -156.28506121 338.10520808 -159.3203125 338.36328125 C-160.3203125 337.36328125 -160.3203125 337.36328125 -160.4609375 333.37582397 C-160.40390892 328.55503035 -159.82802594 323.91728757 -159.0703125 319.16259766 C-158.87013268 317.85576775 -158.87013268 317.85576775 -158.66590881 316.52253723 C-158.22575834 313.66859142 -157.77439694 310.81660406 -157.3203125 307.96484375 C-157.16480927 306.98286388 -157.00930603 306.00088402 -156.84909058 304.98914719 C-156.02511628 299.79439769 -155.19165899 294.60126586 -154.35107422 289.40917969 C-153.48964635 284.07502746 -152.66329066 278.73605518 -151.84463501 273.39519691 C-151.20415792 269.26177171 -150.53666352 265.13302628 -149.86206055 261.00504684 C-149.54574404 259.03968332 -149.23953617 257.07266278 -148.9440918 255.1040535 C-147.19957773 243.54892057 -145.50269653 235.1321452 -137.3203125 226.36328125 C-136.27421665 225.10523231 -135.23159841 223.84426684 -134.1953125 222.578125 C-133.24066732 221.48245269 -132.28236164 220.38995831 -131.3203125 219.30078125 C-130.28795134 218.11164084 -129.25670563 216.92153114 -128.2265625 215.73046875 C-127.73285156 215.16038086 -127.23914063 214.59029297 -126.73046875 214.00292969 C-117.37057822 203.11978827 -112.41504709 195.12817135 -110.9453125 180.67578125 C-111.81569638 172.98739027 -117.05050006 166.516482 -121.23413086 160.19897461 C-124.74210653 154.87390739 -125.45462865 151.42387936 -125.03125 145.1875 C-124.9603566 144.07878792 -124.9603566 144.07878792 -124.88803101 142.94767761 C-124.23766564 133.38860192 -123.27377803 123.857631 -122.2734375 114.32983398 C-121.94194894 111.14344954 -121.62723948 107.95565518 -121.3125 104.76757812 C-121.09998456 102.72254935 -120.88647952 100.67762311 -120.671875 98.6328125 C-120.58112701 97.68904251 -120.49037903 96.74527252 -120.3968811 95.77290344 C-119.70575853 89.43977364 -118.59434513 83.81886856 -113.45703125 79.5390625 C-112.90724609 79.07371094 -112.35746094 78.60835937 -111.79101562 78.12890625 C-111.20255859 77.649375 -110.61410156 77.16984375 -110.0078125 76.67578125 C-109.38970703 76.15886719 -108.77160156 75.64195312 -108.13476562 75.109375 C-103.36157681 71.1438078 -98.48324171 67.31290103 -93.57739258 63.51342773 C-89.33592529 60.21319324 -85.24941237 56.76521397 -81.1953125 53.23828125 C-62.83802046 37.29031937 -62.83802046 37.29031937 -54.61328125 37.15234375 C-52.8972168 37.10980469 -52.8972168 37.10980469 -51.14648438 37.06640625 C-48.73257231 37.01457776 -46.31848728 36.97023187 -43.90429688 36.93359375 C-42.75638672 36.90265625 -41.60847656 36.87171875 -40.42578125 36.83984375 C-39.37543701 36.82002441 -38.32509277 36.80020508 -37.24291992 36.77978516 C-33.04878557 36.18207459 -30.46669642 34.63557728 -27.64208984 31.50073242 C-27.1517627 30.80955322 -26.66143555 30.11837402 -26.15625 29.40625 C-25.59695801 28.62934814 -25.03766602 27.85244629 -24.46142578 27.05200195 C-23.8786084 26.22659912 -23.29579102 25.40119629 -22.6953125 24.55078125 C-21.45147268 22.83915164 -20.20667069 21.12822085 -18.9609375 19.41796875 C-17.2044476 16.98781982 -15.45477882 14.55425642 -13.72851562 12.10253906 C-12.32259138 10.11004326 -10.88779533 8.1418838 -9.4453125 6.17578125 C-9.04231934 5.58240967 -8.63932617 4.98903809 -8.22412109 4.37768555 C-5.73780258 1.04501416 -4.04723584 0.01690055 0 0 Z " fill="#FFFFFF" transform="translate(548.3203125,543.63671875)"/>
<path d="M0 0 C1.11246094 -0.04898438 2.22492188 -0.09796875 3.37109375 -0.1484375 C7.59186017 0.54383019 8.73470352 2.22269334 11.5625 5.375 C14.31828334 9.32602013 16.72590565 13.48548294 19.1875 17.625 C19.85523438 18.71941406 20.52296875 19.81382812 21.2109375 20.94140625 C30.33267736 36.17471182 30.33267736 36.17471182 29.11328125 44.41015625 C27.76177367 49.73910437 25.11666656 53.54298812 21.75 57.8125 C20.56278803 59.38497275 19.37796303 60.95924999 18.1953125 62.53515625 C17.28700684 63.73422607 17.28700684 63.73422607 16.36035156 64.95751953 C13.49668448 68.80814846 10.81170512 72.77481513 8.125 76.75 C3.14680345 84.07559615 -1.89842242 91.35035624 -6.98706055 98.59960938 C-10.8768154 104.14212037 -14.74932169 109.69622704 -18.61035156 115.25878906 C-21.2857462 119.11150827 -23.96720354 122.95998151 -26.64990234 126.80761719 C-27.76977621 128.416002 -28.8876159 130.0258072 -30.00244141 131.63769531 C-37.41591661 142.35480835 -43.53374558 151.1746547 -56.4375 155.375 C-65.56126798 156.87222767 -74.66189421 156.22035015 -83.81529236 155.46485901 C-87.81576915 155.14248146 -91.82033679 154.8777519 -95.82421875 154.6015625 C-100.85900676 154.25050709 -105.89122356 153.88438469 -110.92041016 153.45996094 C-132.56553567 151.65354333 -149.83926278 151.92331622 -170.13757324 160.52502441 C-178.46108684 162.66894574 -186.71237703 161.2336572 -194.9543457 159.37475586 C-195.94117844 159.16166779 -196.92801117 158.94857971 -197.94474792 158.72903442 C-201.17048216 158.02848445 -204.39197648 157.31046843 -207.61328125 156.58984375 C-209.86999669 156.09070156 -212.12676743 155.59180934 -214.3835907 155.09315491 C-219.09663329 154.04829493 -223.80732536 152.99347733 -228.5168457 151.93286133 C-234.54461004 150.57725393 -240.57962479 149.25751628 -246.6171999 147.94640255 C-251.27366021 146.92916203 -255.92444493 145.8876525 -260.57399559 144.83932686 C-262.79714869 144.34221402 -265.02228377 143.85387826 -267.24935341 143.37461662 C-270.3617871 142.70213655 -273.46471074 141.99593907 -276.56762695 141.28100586 C-277.48254913 141.0911058 -278.39747131 140.90120575 -279.34011841 140.70555115 C-285.65142231 139.19821796 -288.80745758 136.74794239 -292.4375 131.375 C-290.83062117 127.88651494 -289.67344485 126.60871272 -286.23828125 124.81640625 C-285.37082275 124.35500244 -284.50336426 123.89359863 -283.60961914 123.41821289 C-282.66594482 122.92957764 -281.72227051 122.44094238 -280.75 121.9375 C-278.73347839 120.86626944 -276.71788117 119.7932973 -274.703125 118.71875 C-273.66349609 118.16703125 -272.62386719 117.6153125 -271.55273438 117.046875 C-266.65832159 114.42015566 -261.82845088 111.68308157 -257 108.9375 C-256.04762451 108.39738281 -255.09524902 107.85726562 -254.11401367 107.30078125 C-252.18228031 106.20502075 -250.25088328 105.10866713 -248.31982422 104.01171875 C-243.57048727 101.31482269 -238.8167092 98.62579513 -234.0625 95.9375 C-232.64614258 95.13602539 -232.64614258 95.13602539 -231.20117188 94.31835938 C-226.23442717 91.51048407 -221.26111346 88.7150562 -216.27734375 85.9375 C-205.91570141 80.16136331 -195.59928491 74.32899565 -185.375 68.3125 C-176.42676668 63.05068674 -167.37075213 58.03408921 -158.22412109 53.12646484 C-150.90107722 49.19046331 -143.66508851 45.12344646 -136.46044922 40.9753418 C-128.45005165 36.36621457 -120.38744738 31.8530541 -112.31274414 27.35766602 C-106.13541851 23.91161419 -100.01519633 20.38517507 -93.93579102 16.76879883 C-87.93204436 13.41930311 -81.83118134 13.55416634 -75.25390625 15.14501953 C-70.61488969 16.55174582 -66.02001951 18.07324844 -61.42578125 19.61914062 C-53.76953096 22.06308493 -47.05708471 23.79429945 -39.40673828 20.50073242 C-37.43448113 19.41169911 -35.60247195 18.21907378 -33.75 16.9375 C-33.07936523 16.49736572 -32.40873047 16.05723145 -31.71777344 15.60375977 C-29.61013398 14.21418588 -27.52265922 12.79804246 -25.4375 11.375 C-23.34854307 9.96249011 -21.25800835 8.55243494 -19.16479492 7.14624023 C-17.87452598 6.27591807 -16.58924934 5.39813499 -15.30981445 4.51196289 C-9.97833335 0.8727342 -6.39150981 0.19211475 0 0 Z " fill="#FFFFFF" transform="translate(375.4375,568.625)"/>
<path d="M0 0 C5.55047778 -0.58240307 8.39953983 0.6537036 12.76953125 4.1171875 C17.91228854 8.72893873 22.77065584 13.64288364 27.60546875 18.57421875 C30.48803683 21.46082404 33.47948445 24.13371533 36.58203125 26.77734375 C39.67162496 29.48739686 42.52292835 32.43015568 45.39453125 35.3671875 C45.93464844 35.80546875 46.47476562 36.24375 47.03125 36.6953125 C49.05143844 39.17279287 49.21285192 41.21149648 49.39453125 44.3671875 C48.63671875 46.76953125 48.63671875 46.76953125 47.26953125 49.3046875 C46.71007812 50.35140625 46.150625 51.398125 45.57421875 52.4765625 C44.85023702 53.77487998 44.12337865 55.07159524 43.39453125 56.3671875 C42.95270508 57.15802734 42.51087891 57.94886719 42.05566406 58.76367188 C39.37543523 63.55272832 36.6725623 68.32853814 33.95703125 73.09765625 C30.40554863 79.33714288 26.89643492 85.59977546 23.39453125 91.8671875 C18.3905487 100.81560768 13.36624555 109.75210898 8.30444336 118.66796875 C5.39501484 123.79927979 2.5189159 128.94665593 -0.3203125 134.1171875 C-0.94164062 135.24318359 -1.56296875 136.36917969 -2.203125 137.52929688 C-3.39606693 139.69356201 -4.58266844 141.86133886 -5.76171875 144.03320312 C-6.30699219 145.01998047 -6.85226562 146.00675781 -7.4140625 147.0234375 C-7.88642334 147.88775391 -8.35878418 148.75207031 -8.84545898 149.64257812 C-13.16747304 156.33333646 -17.54298776 160.45345442 -24.6796875 163.98828125 C-25.44416702 164.37790543 -26.20864655 164.7675296 -26.99629211 165.16896057 C-28.60505892 165.98257904 -30.21796269 166.7880645 -31.8347168 167.58569336 C-34.28310053 168.79979406 -36.70845227 170.05303189 -39.13476562 171.31054688 C-55.92928745 179.82074891 -55.92928745 179.82074891 -63.60546875 177.3671875 C-65.96467647 174.95324972 -67.24696096 172.43620509 -68.60546875 169.3671875 C-70.31011152 165.88937542 -70.31011152 165.88937542 -72.60546875 163.3671875 C-77.59559576 162.44404628 -80.1457647 163.42172344 -84.375 166.17578125 C-86.06768995 167.36898892 -87.74849425 168.57920853 -89.41796875 169.8046875 C-91.11160376 171.01224544 -92.80559645 172.21930193 -94.5 173.42578125 C-95.61145386 174.23486938 -95.61145386 174.23486938 -96.74536133 175.06030273 C-103.4000565 179.73579601 -114.76626001 177.51488714 -122.60546875 177.3671875 C-124.06851904 177.34839028 -125.53157262 177.32984783 -126.99462891 177.31152344 C-130.96468223 177.2551164 -134.9307981 177.14398168 -138.89874268 177.00405884 C-140.47952679 176.95495528 -142.06084053 176.92046091 -143.64227295 176.90145874 C-153.56779578 176.76564906 -159.81700232 175.86806065 -167.35009766 168.73266602 C-168.09437012 167.95205811 -168.83864258 167.1714502 -169.60546875 166.3671875 C-170.4358667 165.54935791 -171.26626465 164.73152832 -172.12182617 163.88891602 C-173.51403326 162.51236402 -174.88931537 161.11835396 -176.2421875 159.703125 C-178.22172334 157.74649288 -180.23468147 155.92309916 -182.3359375 154.1015625 C-187.51630432 149.60962252 -192.46054611 144.87903557 -197.42578125 140.15234375 C-200.56486682 137.17817391 -203.6902782 134.25014754 -207.0546875 131.53125 C-209.60546875 129.3671875 -209.60546875 129.3671875 -210.79296875 126.8671875 C-210.56266179 123.79642803 -209.43812519 122.79860557 -207.26245117 120.72802734 C-203.99727344 118.04641534 -200.32022014 116.0336091 -196.66796875 113.9296875 C-189.3079559 109.60301083 -182.04289683 105.16252877 -174.85546875 100.5546875 C-164.16904591 93.71356065 -153.41839422 86.97968944 -142.65087891 80.26708984 C-139.59641697 78.36154048 -136.54395844 76.45282444 -133.4921875 74.54296875 C-123.1879604 68.0947676 -112.8715305 61.66738276 -102.53173828 55.27636719 C-92.88451033 49.30972103 -83.26949706 43.29170641 -73.65380859 37.27441406 C-70.63431031 35.38523253 -67.61417291 33.49707784 -64.59375 31.609375 C-63.10935425 30.68161255 -63.10935425 30.68161255 -61.5949707 29.73510742 C-59.61068956 28.49527606 -57.62615398 27.2558518 -55.64135742 26.0168457 C-50.43487869 22.76573553 -45.23464081 19.50518034 -40.04296875 16.23046875 C-38.9653125 15.55242187 -37.88765625 14.874375 -36.77734375 14.17578125 C-34.72337592 12.88319805 -32.67117322 11.58780395 -30.62109375 10.2890625 C-19.54608509 3.32893965 -12.70250321 1.79015787 0 0 Z " fill="#FFFFFF" transform="translate(402.60546875,376.6328125)"/>
<path d="M0 0 C1.04535416 0.23902039 2.09070831 0.47804077 3.16773987 0.7243042 C6.58823344 1.50969724 10.00440089 2.31234802 13.4206543 3.1159668 C15.81175202 3.67012203 18.20304673 4.22342787 20.5945282 4.77592468 C25.58988266 5.93272139 30.58322373 7.09773615 35.57519531 8.26904297 C41.96874325 9.76881318 48.36620519 11.25101505 54.76516438 12.72750568 C59.69675942 13.86688981 64.62654264 15.01395195 69.5557766 16.16350365 C71.91439525 16.71290188 74.27348459 17.26028352 76.63305092 17.80559731 C79.92776184 18.56857381 83.21998603 19.34147701 86.51171875 20.1171875 C87.48274536 20.34017014 88.45377197 20.56315277 89.45422363 20.79289246 C97.55708022 22.72155969 102.89874554 24.95193716 107.93237305 31.81518555 C108.89439417 33.08227852 109.85664499 34.34919713 110.8190918 35.6159668 C111.32359863 36.28837402 111.82810547 36.96078125 112.34790039 37.65356445 C115.10320249 41.30380906 117.92994335 44.89836953 120.74487305 48.50268555 C121.93545019 50.03356783 123.12554959 51.56482176 124.31518555 53.09643555 C124.91105469 53.86342773 125.50692383 54.63041992 126.12084961 55.4206543 C127.3285319 56.9753418 128.53621419 58.5300293 129.74389648 60.0847168 C135.62395543 67.65342436 141.50506836 75.22089058 147.43237305 82.75268555 C148.30873765 83.86852187 149.18503853 84.98440823 150.0612793 86.1003418 C151.60499443 88.06611931 153.1513578 90.02969552 154.70141602 91.99047852 C156.59519064 94.38703385 158.48283551 96.78832345 160.36987305 99.19018555 C160.96155273 99.9359082 161.55323242 100.68163086 162.1628418 101.44995117 C171.70460996 113.62883645 171.70460996 113.62883645 171.3190918 122.3894043 C170.36113648 128.24357568 166.45798971 131.39366002 161.93237305 134.75268555 C159.56282975 136.1121545 157.20375969 137.40610587 154.7800293 138.65893555 C154.09132248 139.02062836 153.40261566 139.38232117 152.69303894 139.75497437 C151.22253907 140.52665498 149.7508086 141.29599444 148.2779541 142.06317139 C144.43428161 144.06577346 140.60016047 146.08653785 136.7644043 148.10424805 C136.00485443 148.5031424 135.24530457 148.90203674 134.46273804 149.3130188 C128.00989613 152.70384975 121.58466186 156.1421379 115.18237305 159.62768555 C114.31620361 160.09625977 113.45003418 160.56483398 112.55761719 161.04760742 C102.21075649 166.27820723 102.21075649 166.27820723 96.2878418 175.77270508 C95.40439387 178.91558463 94.61565868 182.07908679 93.8269043 185.24682617 C93.62452148 186.02348633 93.42213867 186.80014648 93.21362305 187.6003418 C93.03895508 188.30167236 92.86428711 189.00300293 92.68432617 189.72558594 C91.7537206 192.2342931 90.81658687 193.8375572 88.93237305 195.75268555 C80.41020005 197.81981977 68.32089188 197.67854843 60.29174805 194.1550293 C57.52685669 191.87440784 55.27825504 189.46093955 52.93237305 186.75268555 C51.30615634 185.19628761 49.64198213 183.68933587 47.96972656 182.18261719 C46.27261374 180.6526934 44.6001592 179.09962565 42.93237305 177.5378418 C39.97361283 174.77922215 36.9484222 172.10657229 33.8894043 169.4597168 C31.54678154 167.41635124 29.23963882 165.33587695 26.93237305 163.25268555 C23.97367554 160.5822021 21.00310833 157.92970496 17.99487305 155.31518555 C13.80841555 151.6700074 9.71450907 147.92619615 5.61987305 144.1784668 C2.67066168 141.51646061 -0.34568962 138.9472483 -3.41137695 136.4206543 C-7.47147269 132.33183147 -9.00549264 127.31499811 -10.57617188 121.90258789 C-10.92331238 120.73759766 -10.92331238 120.73759766 -11.27746582 119.54907227 C-12.04095315 116.9808304 -12.7945327 114.40979268 -13.5480957 111.83862305 C-14.08454163 110.02697047 -14.62160628 108.21550101 -15.15925598 106.40420532 C-16.57777836 101.61925392 -17.98794655 96.83187974 -19.3963623 92.04394531 C-20.80074589 87.27483034 -22.2127199 82.50796529 -23.62426758 77.7409668 C-25.26686226 72.19314411 -26.90764909 66.64482039 -28.53903198 61.09368896 C-30.87395041 53.15119471 -33.21975465 45.2138044 -35.65209961 37.30053711 C-36.03191483 36.05486969 -36.41173004 34.80920227 -36.80305481 33.52578735 C-37.48462443 31.29684119 -38.17465175 29.07045263 -38.87553406 26.84750366 C-40.57128673 21.27647794 -41.5728325 16.58370325 -41.06762695 10.75268555 C-38.34333675 6.90180917 -33.9731119 4.48621537 -30.00512695 2.00268555 C-29.39991211 1.59147461 -28.79469727 1.18026367 -28.17114258 0.7565918 C-19.44365004 -4.67665588 -9.46650486 -2.25657307 0 0 Z " fill="#FFFFFF" transform="translate(594.067626953125,407.247314453125)"/>
<path d="M0 0 C1.15095154 0.05628571 2.30190308 0.11257141 3.48773193 0.17056274 C6.12524083 0.3023132 8.76160852 0.44067429 11.39819336 0.58850098 C16.34057526 0.86435533 21.28446498 1.10682093 26.22851562 1.35058594 C34.87517212 1.78076577 43.51994954 2.24056144 52.16410065 2.71834946 C57.19170721 2.99614173 62.21946851 3.26865062 67.24804688 3.52832031 C72.19464174 3.7837962 77.14039338 4.05197107 82.0858078 4.32933426 C83.94981026 4.43179916 85.81405956 4.52987803 87.67853546 4.62333298 C90.26862748 4.75409419 92.85731058 4.90121729 95.44628906 5.05224609 C96.20156891 5.08664291 96.95684875 5.12103973 97.73501587 5.15647888 C104.85288138 5.60443916 110.64373797 7.80462242 115.890625 12.8359375 C117.8034668 15.72094727 117.8034668 15.72094727 119.58984375 19.02734375 C119.91096634 19.61386215 120.23208893 20.20038055 120.5629425 20.80467224 C121.57823603 22.66391159 122.57852085 24.53072432 123.578125 26.3984375 C124.59167676 28.2678132 125.60822078 30.13553368 126.6254425 32.00291443 C127.54385485 33.69272746 128.45510291 35.38642844 129.3659668 37.08032227 C130.89039838 39.92501797 130.89039838 39.92501797 132.890625 42.8359375 C133.26171875 44.95703125 133.26171875 44.95703125 133.328125 47.2734375 C133.36808594 48.03527344 133.40804687 48.79710937 133.44921875 49.58203125 C132.58934874 53.05157668 130.85912145 53.85198618 127.890625 55.8359375 C124.47383262 57.89163353 121.00190376 59.83842487 117.515625 61.7734375 C115.43482922 62.93868314 113.35410194 64.10405111 111.2734375 65.26953125 C110.21157227 65.86233887 109.14970703 66.45514648 108.05566406 67.06591797 C103.15746496 69.80519161 98.27438792 72.57103583 93.390625 75.3359375 C91.46754211 76.42334368 89.54436482 77.51058293 87.62109375 78.59765625 C86.67153809 79.13438965 85.72198242 79.67112305 84.74365234 80.22412109 C81.9352281 81.810739 79.12594093 83.39581815 76.31640625 84.98046875 C66.46061593 90.54166771 56.62031402 96.12872297 46.79974365 101.75189209 C36.22789582 107.80508962 25.62875906 113.80626767 14.99291992 119.74658203 C7.92635244 123.6934703 0.8727549 127.66252954 -6.171875 131.6484375 C-7.58932007 132.44979126 -7.58932007 132.44979126 -9.03540039 133.26733398 C-13.35813254 135.71160734 -17.67897466 138.15910731 -21.99609375 140.61328125 C-23.45049661 141.43754274 -24.90492209 142.26176433 -26.359375 143.0859375 C-27.00914307 143.4569458 -27.65891113 143.8279541 -28.32836914 144.21020508 C-36.25386742 148.69367421 -43.99111345 149.33668728 -52.82434082 147.16998291 C-60.39538268 144.96520116 -67.80870693 142.29369036 -75.234375 139.6484375 C-77.47720828 138.86985163 -79.7206947 138.09314457 -81.96484375 137.31835938 C-110.57841931 127.36689319 -110.57841931 127.36689319 -114.109375 123.8359375 C-114.0293824 118.26845236 -111.34447894 115.23609923 -107.734375 111.3359375 C-106.63027847 110.09861069 -105.52877614 108.85896484 -104.4296875 107.6171875 C-103.5929248 106.67552734 -103.5929248 106.67552734 -102.73925781 105.71484375 C-100.24786739 102.8428035 -97.9278634 99.84797629 -95.609375 96.8359375 C-91.35781921 91.34399127 -86.91917016 86.0490477 -82.37451172 80.7980957 C-78.9395442 76.82373007 -75.62106688 72.7777909 -72.36328125 68.65625 C-69.33846533 64.87129836 -66.25543883 61.135585 -63.171875 57.3984375 C-62.56206787 56.65924072 -61.95226074 55.92004395 -61.32397461 55.15844727 C-60.12975755 53.71090657 -58.93550404 52.26339593 -57.74121094 50.81591797 C-54.18416058 46.49998762 -50.64730417 42.1675466 -47.109375 37.8359375 C-41.7247625 31.2433701 -36.32808218 24.66080503 -30.921875 18.0859375 C-30.33962158 17.37679199 -29.75736816 16.66764648 -29.1574707 15.93701172 C-28.02456156 14.56024263 -26.88702724 13.18726489 -25.74462891 11.81835938 C-24.67321405 10.51948082 -23.62234372 9.20331512 -22.59521484 7.86914062 C-22.10875488 7.25490234 -21.62229492 6.64066406 -21.12109375 6.0078125 C-20.70690186 5.46737305 -20.29270996 4.92693359 -19.8659668 4.37011719 C-13.81608048 -0.91375851 -7.5749333 -0.45775733 0 0 Z " fill="#FFFFFF" transform="translate(250.109375,311.1640625)"/>
<path d="M0 0 C2.68507854 1.3842608 4.92136741 3.21281038 7.25 5.125 C8.66307977 6.23432588 10.07718583 7.3423454 11.4921875 8.44921875 C12.59578613 9.32392822 12.59578613 9.32392822 13.72167969 10.21630859 C17.54339653 13.20832138 21.46014304 16.06911751 25.375 18.9375 C26.57044434 19.81752686 26.57044434 19.81752686 27.79003906 20.71533203 C33.9102799 25.21725183 40.06679034 29.66764165 46.23217773 34.10742188 C54.06834606 39.75677239 61.8396933 45.4929551 69.60888672 51.23388672 C72.7806831 53.57662462 75.95522456 55.91562422 79.13012695 58.25415039 C80.70322401 59.41302718 82.27598104 60.57236568 83.84838867 61.73217773 C87.95003942 64.75706543 92.0568993 67.77450857 96.171875 70.78125 C97.02201172 71.40386719 97.87214844 72.02648437 98.74804688 72.66796875 C100.36225171 73.8499548 101.97802494 75.02980333 103.59570312 76.20703125 C105.74684516 77.78415901 107.87666225 79.38569546 110 81 C110.66966797 81.49242187 111.33933594 81.98484375 112.02929688 82.4921875 C112.96612305 83.22308594 112.96612305 83.22308594 113.921875 83.96875 C114.4694043 84.38576172 115.01693359 84.80277344 115.58105469 85.23242188 C118.98286941 89.47005756 119.34477686 95.54548715 120.0703125 100.78125 C120.24433594 102.03550781 120.41835938 103.28976562 120.59765625 104.58203125 C120.77167969 105.87496094 120.94570313 107.16789062 121.125 108.5 C121.30675781 109.79292969 121.48851562 111.08585937 121.67578125 112.41796875 C124.13980694 130.44426197 124.13980694 130.44426197 120 138 C115.08400113 143.35172906 108.56056614 146.89697933 102.375 150.5625 C100.30943973 151.80262605 98.24434516 153.04352806 96.1796875 154.28515625 C95.14295898 154.90664551 94.10623047 155.52813477 93.03808594 156.16845703 C88.49968683 158.90448003 83.9992316 161.70020057 79.5 164.5 C71.79219706 169.28525173 64.06075396 174.03052112 56.3125 178.75 C55.31347656 179.35908203 54.31445312 179.96816406 53.28515625 180.59570312 C52.3621875 181.15708984 51.43921875 181.71847656 50.48828125 182.296875 C49.66884033 182.79541992 48.84939941 183.29396484 48.00512695 183.80761719 C41.55702626 187.64208982 34.79339089 185.75786488 27.81103516 184.3034668 C26.91738754 184.12296783 26.02373993 183.94246887 25.10301208 183.75650024 C22.16359718 183.16087852 19.2263279 182.55534452 16.2890625 181.94921875 C14.23563439 181.5299821 12.18211522 181.11119119 10.12850952 180.69282532 C5.82890246 179.81530513 1.53031944 178.93297307 -2.76757812 178.04711914 C-8.25880253 176.91561997 -13.7522136 175.79519002 -19.24641991 174.67827129 C-23.48705802 173.81506697 -27.72656493 172.94640992 -31.96574783 172.07608986 C-33.98989557 171.66110996 -36.01436477 171.24769471 -38.0391655 170.8359127 C-40.87801128 170.25762971 -43.71527399 169.6721136 -46.55224609 169.0847168 C-47.37850998 168.91783859 -48.20477386 168.75096039 -49.05607605 168.57902527 C-54.52210426 167.43679579 -59.74045911 165.87345296 -65 164 C-64.69278782 158.56234445 -61.49004526 155.86632552 -57.875 152.1875 C-56.67498678 150.93305118 -55.47576015 149.6778494 -54.27734375 148.421875 C-53.41665283 147.52758789 -53.41665283 147.52758789 -52.53857422 146.61523438 C-50.78059677 144.76966491 -49.09583374 142.87291194 -47.4375 140.9375 C-44.40910581 137.42816976 -41.2748064 134.0249539 -38.125 130.625 C-34.35832139 126.55656276 -30.59859404 122.48296504 -26.875 118.375 C-25.81925781 117.21097656 -25.81925781 117.21097656 -24.7421875 116.0234375 C-22.15565957 113.01935349 -20.77448105 110.94028855 -20.46923828 107.01831055 C-20.402061 106.20985687 -20.33488373 105.4014032 -20.26567078 104.56845093 C-20.20120255 103.68347931 -20.13673431 102.79850769 -20.0703125 101.88671875 C-19.95771843 100.48022568 -19.95771843 100.48022568 -19.84284973 99.0453186 C-19.68067624 97.00111827 -19.52270019 94.95658169 -19.36837769 92.91177368 C-19.12303244 89.66143369 -18.86646524 86.41213615 -18.60766602 83.1628418 C-17.75420957 72.3493029 -16.95871981 61.53235379 -16.21563721 50.7106781 C-15.87666593 45.77517392 -15.53004668 40.8402129 -15.18426514 35.90518188 C-14.94028146 32.35299555 -14.71128458 28.80004534 -14.48291016 25.24682617 C-14.33166884 23.05643537 -14.17984326 20.86608481 -14.02734375 18.67578125 C-13.96803177 17.68099762 -13.90871979 16.68621399 -13.84761047 15.6612854 C-13.47148658 10.48034462 -12.9382828 6.44874312 -10 2 C-6.20582436 -0.52945043 -4.5063449 -0.53290801 0 0 Z " fill="#FFFFFF" transform="translate(655,224)"/>
<path d="M0 0 C2.37731339 4.79816732 2.62729439 9.61635622 3.0703125 14.8671875 C3.19924393 16.29661179 3.19924393 16.29661179 3.33078003 17.75491333 C3.51075185 19.76679046 3.68703197 21.7790008 3.85986328 23.79150391 C4.12352898 26.85789226 4.3986484 29.92308366 4.67578125 32.98828125 C4.84963411 34.94785683 5.02283272 36.90749059 5.1953125 38.8671875 C5.31714401 40.23313553 5.31714401 40.23313553 5.44143677 41.62667847 C6.59163405 55.12776994 6.59163405 55.12776994 4.25390625 58.57421875 C-0.97451089 63.08807941 -8.116485 65.50606706 -14.36132812 68.27539062 C-15.40869141 68.76845703 -16.45605469 69.26152344 -17.53515625 69.76953125 C-18.96420288 70.41305542 -18.96420288 70.41305542 -20.42211914 71.06958008 C-26.89735598 75.91849547 -28.60149606 85.34892141 -30.96875 92.7265625 C-31.71210213 94.99744083 -32.45559596 97.26827278 -33.19921875 99.5390625 C-34.3541072 103.09082427 -35.50598958 106.64352843 -36.65478516 110.19726562 C-37.77251029 113.64711686 -38.90132066 117.09319272 -40.03125 120.5390625 C-40.36991089 121.5985611 -40.70857178 122.65805969 -41.05749512 123.74966431 C-43.21011078 130.29544753 -45.26161787 136.44886509 -51.109375 140.60546875 C-51.98154663 141.23594116 -51.98154663 141.23594116 -52.87133789 141.87915039 C-53.80127563 142.52678345 -53.80127563 142.52678345 -54.75 143.1875 C-55.40540771 143.65599365 -56.06081543 144.1244873 -56.73608398 144.60717773 C-62.13041794 148.44435796 -67.58233543 152.2045855 -73.06274414 155.91772461 C-76.41423147 158.19216821 -79.71183564 160.50920843 -82.9453125 162.94921875 C-83.89071899 163.65485962 -83.89071899 163.65485962 -84.85522461 164.37475586 C-86.04525902 165.26795557 -87.22642078 166.17314634 -88.39672852 167.09204102 C-91.04901369 169.07072995 -92.46847711 170.03225794 -95.83203125 169.828125 C-98 169 -98 169 -99 168 C-99.54390791 160.29080332 -98.69810174 152.45879253 -98.125 144.7734375 C-98.03621582 143.54460846 -97.94743164 142.31577942 -97.85595703 141.04971313 C-97.57399869 137.15788902 -97.28707809 133.26644947 -97 129.375 C-96.80655822 126.72270907 -96.61425106 124.07033737 -96.421875 121.41796875 C-95.95168324 114.94503333 -95.47742615 108.47240564 -95 102 C-100.4723547 104.1261894 -105.82872953 106.28331034 -111.015625 109.05078125 C-112.03914062 109.58380859 -113.06265625 110.11683594 -114.1171875 110.66601562 C-116.22603427 111.77434345 -118.33014776 112.89171928 -120.4296875 114.01757812 C-121.44804688 114.54416016 -122.46640625 115.07074219 -123.515625 115.61328125 C-124.88122559 116.33704956 -124.88122559 116.33704956 -126.27441406 117.07543945 C-129.60683767 118.20584864 -131.64075169 117.95620973 -135 117 C-136.27868533 114.44262934 -136.04688664 112.79814754 -135.93164062 109.93994141 C-135.89107544 108.88100677 -135.85051025 107.82207214 -135.80871582 106.73104858 C-135.73324524 104.99632797 -135.73324524 104.99632797 -135.65625 103.2265625 C-135.60754761 102.02391754 -135.55884521 100.82127258 -135.50866699 99.58218384 C-134.98933931 87.08553367 -134.36195889 74.594183 -133.69775391 62.10449219 C-133.49679889 58.31462936 -133.30099218 54.52452154 -133.10546875 50.734375 C-132.97686716 48.28904646 -132.84797219 45.84373332 -132.71875 43.3984375 C-132.661427 42.28278412 -132.604104 41.16713074 -132.54504395 40.01766968 C-132.43369363 37.95118871 -132.31246826 35.88520631 -132.17944336 33.82000732 C-132.06323207 31.99371135 -131.97131799 30.16564029 -131.90844727 28.33673096 C-131.76757812 25.91259766 -131.76757812 25.91259766 -131 22 C-126.51544081 18.07299003 -120.406718 17.79870459 -114.72729492 16.9152832 C-113.01909325 16.63664932 -113.01909325 16.63664932 -111.27638245 16.35238647 C-107.51269095 15.74133223 -103.74673247 15.1457589 -99.98046875 14.55078125 C-97.36106623 14.12983738 -94.74178822 13.70817594 -92.12263489 13.28569031 C-86.63198776 12.40175827 -81.1400513 11.52623582 -75.6472168 10.65600586 C-69.31143181 9.65215104 -62.97763967 8.63643521 -56.64483184 7.61397868 C-50.53811108 6.6281933 -44.43026243 5.64958718 -38.32180214 4.67464256 C-35.72965187 4.26039787 -33.13775904 3.84453888 -30.54613304 3.42702675 C-26.91867941 2.84394588 -23.29001422 2.26910326 -19.66088867 1.6965332 C-18.59411896 1.52358231 -17.52734924 1.35063141 -16.42825317 1.17243958 C-10.87471612 0.30576826 -5.62073962 -0.18219208 0 0 Z " fill="#FFFFFF" transform="translate(752,613)"/>
<path d="M0 0 C2.44556747 0.13853475 4.89142684 0.27049845 7.33740234 0.40161133 C11.13821083 0.60796762 14.93703907 0.83733302 18.7355957 1.08148193 C20.47107163 1.18738183 22.20793195 1.27001351 23.94482422 1.34936523 C24.83363281 1.40463379 25.72244141 1.45990234 26.63818359 1.5168457 C27.36682617 1.55366455 28.09546875 1.5904834 28.84619141 1.62841797 C31.51297063 2.45798033 32.16695481 3.87617835 33.68505859 6.20043945 C34.52741354 8.19581101 35.29619839 10.22291578 36.01342773 12.26660156 C36.4472023 13.4914476 36.88097687 14.71629364 37.32789612 15.97825623 C37.79211927 17.31139118 38.2562226 18.64456786 38.72021484 19.9777832 C39.20373662 21.35037071 39.68791321 22.7227277 40.17271423 24.09486389 C41.4455785 27.7026015 42.71016251 31.31318581 43.97283936 34.92449951 C45.50594506 39.30471525 47.0482032 43.68171438 48.58967495 48.05899143 C49.789466 51.46630642 50.98771882 54.87413392 52.1811676 58.28367615 C52.82710121 60.12567345 52.82710121 60.12567345 53.48608398 62.00488281 C53.86342178 63.08313828 54.24075958 64.16139374 54.62953186 65.27232361 C55.30765702 67.15349722 56.02166172 69.02232887 56.77952576 70.87281799 C58.14702633 74.38790165 58.40631777 76.46300556 57.68505859 80.20043945 C51.9003212 85.29052752 44.32856023 88.67598394 37.56005859 92.26293945 C29.44456449 96.61077092 21.37606053 101.0246208 13.37255859 105.57543945 C3.92121737 110.94618609 -5.56412412 116.25216639 -15.07836914 121.51074219 C-20.87955283 124.72044942 -26.65992404 127.96061572 -32.40869141 131.26293945 C-33.54773926 131.91335205 -34.68678711 132.56376465 -35.86035156 133.23388672 C-38.03173025 134.47560709 -40.19833861 135.72571804 -42.359375 136.98535156 C-43.33213379 137.539729 -44.30489258 138.09410645 -45.30712891 138.6652832 C-46.58112549 139.40186157 -46.58112549 139.40186157 -47.88085938 140.15332031 C-50.63588711 141.33850727 -52.34909084 141.62823574 -55.31494141 141.20043945 C-56.89599609 139.98779297 -56.89599609 139.98779297 -58.23681641 138.2668457 C-58.74148438 137.62505371 -59.24615234 136.98326172 -59.76611328 136.32202148 C-62.44892931 132.64710482 -65.03532773 128.91986377 -67.56494141 125.13793945 C-72.3416319 118.02347158 -72.3416319 118.02347158 -77.38134766 111.0949707 C-77.84702148 110.47436768 -78.31269531 109.85376465 -78.79248047 109.21435547 C-79.65443175 108.0754385 -80.52930544 106.94613502 -81.41943359 105.82910156 C-83.33363027 103.28151919 -84.31773426 101.18734081 -84.98291016 98.06762695 C-83.94070551 92.0338106 -80.88238442 87.31803342 -77.81494141 82.07543945 C-77.13155585 80.88156593 -76.44986753 79.68671948 -75.76977539 78.4909668 C-74.34356837 75.98531828 -72.91106166 73.48343015 -71.47460938 70.98364258 C-68.37094009 65.56591168 -65.36784347 60.09310786 -62.3631897 54.62005615 C-60.71031066 51.61088601 -59.05120504 48.60515099 -57.39306641 45.59887695 C-56.72180584 44.38112369 -56.05058217 43.16335009 -55.37939453 41.94555664 C-52.14581341 36.07913737 -48.91025783 30.21380721 -45.67453003 24.34857178 C-44.6594254 22.50841912 -43.64451807 20.66815775 -42.62963867 18.82788086 C-41.40872949 16.61455887 -40.18626194 14.40209548 -38.96191406 12.19067383 C-37.90434911 10.27056479 -36.85629114 8.34517133 -35.8203125 6.41333008 C-35.37896973 5.59541992 -34.93762695 4.77750977 -34.48291016 3.93481445 C-34.10803467 3.23066406 -33.73315918 2.52651367 -33.34692383 1.80102539 C-29.19668754 -4.63591549 -7.28076424 -0.41346281 0 0 Z " fill="#FFFFFF" transform="translate(501.31494140625,427.799560546875)"/>
<path d="M0 0 C2.14176941 0.10829163 2.14176941 0.10829163 4.91870117 0.63696289 C6.00371918 0.83911407 7.08873718 1.04126526 8.20663452 1.24954224 C9.45844513 1.4971933 10.71025574 1.74484436 12 2 C13.42576474 2.2756478 14.85160034 2.55092921 16.27749634 2.82589722 C21.28936187 3.79976643 26.29526736 4.80266182 31.30078125 5.80859375 C32.20777456 5.99056871 33.11476788 6.17254368 34.04924583 6.36003304 C38.83644763 7.32075958 43.62313615 8.28399772 48.40942383 9.24926758 C53.33499673 10.24207725 58.26233094 11.22584616 63.19010639 12.20765591 C67.00105485 12.96869154 70.81061466 13.73650717 74.61983299 14.5061512 C76.43610809 14.87189079 78.25289863 15.23508076 80.07021523 15.59560966 C82.60992479 16.10009048 85.14750858 16.61419997 87.68481445 17.13061523 C88.42625702 17.27564987 89.16769958 17.42068451 89.93161011 17.57011414 C96.50374201 18.92647347 102.50608375 20.53028455 106.6875 26.125 C107.3578125 27.01445313 108.028125 27.90390625 108.71875 28.8203125 C112.43921576 34.00603018 116.13540137 39.20719574 119.79296875 44.4375 C122.98306923 48.99171751 126.23515565 53.49918932 129.5 58 C133.70718324 63.80542534 137.87604185 69.63516278 142 75.5 C146.167483 81.42587683 150.3793261 87.31739976 154.625 93.1875 C155.16342529 93.93547852 155.70185059 94.68345703 156.2565918 95.45410156 C158.81788521 99.00823186 161.39912372 102.54190386 164.04296875 106.03515625 C164.51202637 106.66462158 164.98108398 107.29408691 165.46435547 107.94262695 C166.3332442 109.10749173 167.21304851 110.26433211 168.10595703 111.41088867 C170.79673107 115.04958751 171.57228556 117.50347061 171 122 C169.5 124.9375 169.5 124.9375 167 127 C160.65476508 126.74978608 155.61256264 124.87547465 149.85546875 122.32421875 C149.00503494 121.95778763 148.15460114 121.59135651 147.27839661 121.21382141 C144.57713628 120.04801074 141.88214669 118.86850651 139.1875 117.6875 C135.64130891 116.14513553 132.09280037 114.60818447 128.54296875 113.07421875 C127.69808899 112.70888031 126.85320923 112.34354187 125.98272705 111.96713257 C112.76666914 105.41197829 112.76666914 105.41197829 98.75 105.8359375 C96.46787378 106.83436772 94.23115997 107.89287138 92 109 C83.49560864 113.04971017 75.48568296 110.11053829 66.8046875 107.859375 C65.5390799 107.53592102 64.27347229 107.21246704 62.96951294 106.87921143 C60.30025669 106.19557489 57.63277804 105.50545832 54.96630859 104.81103516 C51.55941816 103.92464083 48.14792724 103.05763663 44.73475456 102.19579697 C41.46334236 101.3662416 38.19684602 100.51802794 34.9296875 99.671875 C33.09831741 99.21068268 33.09831741 99.21068268 31.22994995 98.74017334 C30.09171783 98.44016418 28.95348572 98.14015503 27.78076172 97.83105469 C26.78261444 97.57346375 25.78446716 97.3158728 24.756073 97.05047607 C20.24343427 95.3304857 17.01856407 92.68166425 14.68823242 88.45214844 C14.30832153 87.764776 13.92841064 87.07740356 13.5369873 86.36920166 C11.35340275 82.19277753 9.22576482 77.99959747 7.1875 73.75 C6.5324498 72.38838745 6.5324498 72.38838745 5.86416626 70.99926758 C-3.86327115 50.16522916 -6.70757709 24.7498767 -2 2 C-1.34 1.34 -0.68 0.68 0 0 Z " fill="#FFFFFF" transform="translate(788,572)"/>
<path d="M0 0 C5.22040672 4.97810936 8.30867027 9.83304994 8.49584961 17.26416016 C8.48630249 18.28582275 8.48630249 18.28582275 8.4765625 19.328125 C8.47084229 20.03630371 8.46512207 20.74448242 8.45922852 21.47412109 C8.25578222 27.42132883 7.07686708 31.18715155 2.9765625 35.453125 C2.44546875 36.02546875 1.914375 36.5978125 1.3671875 37.1875 C-3.49166228 41.86804337 -8.03226518 43.35976424 -14.6953125 43.515625 C-21.23803554 43.22644387 -26.09061893 41.84742626 -31.0234375 37.453125 C-37.23754 30.61489866 -38.34531704 25.56349931 -38.234375 16.421875 C-37.73453018 9.38702203 -34.03941673 4.15256186 -29.0234375 -0.546875 C-20.14893011 -5.98024687 -8.51980867 -6.5132128 0 0 Z M-27.0703125 4.08984375 C-31.77434227 8.88134515 -33.9419517 13.72036061 -34.0234375 20.453125 C-33.40004774 26.24545483 -31.60582938 30.38878444 -27.3984375 34.453125 C-23.23971285 37.66150124 -19.31834246 39.41716639 -14.0234375 39.453125 C-8.62025578 38.50117781 -3.77748126 36.52894394 -0.0234375 32.453125 C3.21266391 27.06671936 5.15377406 21.73559076 3.9765625 15.453125 C2.12710083 9.27093572 -0.39335049 4.89373373 -6.0234375 1.453125 C-13.70657596 -1.38714936 -20.55109511 -1.12304191 -27.0703125 4.08984375 Z " fill="#FFFFFF" transform="translate(795.0234375,691.546875)"/>
<path d="M0 0 C3.30097992 2.25066813 4.33462816 4.17930685 5.75 7.875 C5.75 8.535 5.75 9.195 5.75 9.875 C3.11 9.875 0.47 9.875 -2.25 9.875 C-2.58 8.885 -2.91 7.895 -3.25 6.875 C-6.16634129 6.6247843 -6.16634129 6.6247843 -9.25 6.875 C-11.53487805 10.30231708 -11.71829993 12.01331519 -11.65234375 16 C-11.38762453 18.19705625 -11.38762453 18.19705625 -8.75 19.875 C-7.925 20.205 -7.1 20.535 -6.25 20.875 C-5.755 20.215 -5.26 19.555 -4.75 18.875 C-1.14659788 15.9922783 1.21985042 16.57299003 5.75 16.875 C5.56430323 20.8674806 4.95022439 22.63262311 2.375 25.75 C-1.99253154 29.02829244 -7.05748324 28.59640309 -12.25 27.875 C-16.57765754 26.16196889 -18.17121131 23.96309141 -20.25 19.875 C-21.07534539 14.35039077 -20.9515139 9.41293432 -18.625 4.3125 C-13.13459969 -1.32238453 -7.43886327 -2.57499113 0 0 Z " fill="#FFFFFF" transform="translate(787.25,697.125)"/>
</svg>
